<?xml version="1.0" encoding="UTF-8"?>
<svg id="Layer_1" xmlns="http://www.w3.org/2000/svg" version="1.1" viewBox="0 0 177 60">
  <!-- Generator: Adobe Illustrator 29.1.0, SVG Export Plug-In . SVG Version: 2.1.0 Build 142)  -->
  <defs>
    <style>
      .st0 {
        fill: #332616;
      }
    </style>
  </defs>
  <path class="st0" d="M10.3,40.1c-.7-.7-1.1-1.9-1.1-3.5v-12.3h6.2v-2.5h-6.1v-7.6s-2.8,0-2.8,0v7.6H2.3v2.5h4.1v12.8c0,2.3.5,3.9,1.6,5,1.1,1.1,2.6,1.6,4.6,1.6s1.9,0,2.8-.3v-2.6c-.9.1-1.7.2-2.2.2-1.2,0-2.2-.4-2.9-1.1Z"/>
  <path class="st0" d="M31.1,22.5c-1.3-.7-2.7-1.1-4.3-1.1s-3.1.4-4.3,1.1c-1.2.7-2.1,1.6-2.6,2.6v-14.9h-2.9v33.3h2.9v-12.9c0-1.2.3-2.3.8-3.3.5-1,1.3-1.8,2.3-2.4,1-.6,2.1-.9,3.3-.9,1.8,0,3.3.6,4.4,1.8,1.1,1.2,1.7,2.8,1.7,4.8v12.9h2.9v-13.4c0-1.7-.4-3.3-1.1-4.6-.7-1.3-1.7-2.3-3-3.1Z"/>
  <path class="st0" d="M48.3,21.4c-2,0-3.8.4-5.4,1.3-1.6.9-2.9,2.2-3.8,3.9-.9,1.7-1.4,3.7-1.4,6s.5,4.3,1.4,6c.9,1.7,2.2,3,3.8,3.9,1.6.9,3.5,1.3,5.5,1.3s4.5-.6,6.3-1.8c1.7-1.2,2.8-2.9,3.3-4.9l-2.9-.2c-.4,1.4-1.2,2.5-2.4,3.3-1.2.8-2.6,1.2-4.4,1.2s-4-.7-5.4-2.1c-1.4-1.4-2.1-3.3-2.2-5.7h17.4v-1.6c0-3.2-.9-5.8-2.6-7.7-1.7-1.9-4.2-2.9-7.2-2.9ZM40.8,31.5c0-2.4.8-4.3,2.2-5.6,1.4-1.3,3.1-2,5.3-2s4,.7,5.3,2.1c1.2,1.4,1.8,3.2,1.8,5.5h-14.6Z"/>
  <rect class="st0" x="110.6" y="10.3" width="2.9" height="33.3"/>
  <path class="st0" d="M125.3,21.4c-1.7,0-3.1.4-4.4,1.1-1.3.7-2.2,1.6-2.9,2.8-.7,1.2-1,2.4-1,3.7h2.9c0-1.3.5-2.5,1.4-3.5.9-1,2.3-1.5,3.9-1.5s3,.5,3.8,1.5c.9,1,1.3,2.4,1.3,4.2v1.5l-5.9.4c-5.4.3-8.1,2.4-8.1,6.3s.6,3.4,1.9,4.4c1.3,1,2.9,1.6,5.1,1.6s2.9-.3,4.1-.9c1.2-.6,2.2-1.5,3-2.6v3.1h2.8v-13.8c0-2.6-.7-4.7-2.1-6.1-1.4-1.4-3.4-2.2-6-2.2ZM130.5,34.5c0,2.4-.6,4.2-1.8,5.4-1.2,1.1-2.8,1.7-4.7,1.7s-2.5-.3-3.4-.9c-.8-.6-1.2-1.5-1.2-2.8s.5-2.3,1.4-3c.9-.6,2.3-1,4.1-1.1l5.6-.3v1Z"/>
  <polygon class="st0" points="155.7 43.5 145.1 31.3 154.6 21.8 151 21.8 140.6 32 140.6 10.3 137.7 10.3 137.7 43.5 140.6 43.5 140.6 35.8 143 33.4 152 43.5 155.7 43.5"/>
  <path class="st0" d="M172.1,24.3c-1.7-1.9-4.2-2.9-7.2-2.9s-3.8.4-5.4,1.3c-1.6.9-2.9,2.2-3.8,3.9-.9,1.7-1.4,3.7-1.4,6s.5,4.3,1.4,6c.9,1.7,2.2,3,3.8,3.9,1.6.9,3.5,1.3,5.5,1.3s4.5-.6,6.3-1.8c1.7-1.2,2.8-2.9,3.3-4.9l-2.9-.2c-.4,1.4-1.2,2.5-2.4,3.3-1.2.8-2.6,1.2-4.4,1.2s-4-.7-5.4-2.1c-1.4-1.4-2.1-3.3-2.2-5.7h17.4v-1.6c0-3.2-.9-5.8-2.6-7.7ZM157.3,31.5c0-2.4.8-4.3,2.2-5.6s3.1-2,5.3-2,4,.7,5.3,2.1c1.2,1.4,1.8,3.2,1.8,5.5h-14.6Z"/>
  <path class="st0" d="M120.2,46.2c-.6-.2-1.3-.3-2-.3v5.7h.7v-1.8c2.7-.2,3.2-1.2,3.2-1.7s-.6-1.5-1.9-1.9ZM119.1,49.1c0,0-.1,0-.2,0,0,0,0,0,0-.2v-2.1c0,0,0-.1,0-.2,0,0,0,0,.2,0h.9c1.3,0,1.6.8,1.6,1.3s-.7,1.2-2.5,1.2Z"/>
  <polygon class="st0" points="123.7 46 123.1 46 123.1 51.6 126.5 51.6 126.5 51.1 123.7 51.1 123.7 46"/>
  <path class="st0" d="M129.6,46l-2.3,5.6h.7l.6-1.5h2.6l.6,1.5h.7l-2.3-5.6h-.5ZM128.8,49.6l1.1-2.7,1.1,2.7h-2.2Z"/>
  <path class="st0" d="M136.7,50.8c-.3.3-.8.4-1.3.4s-.8,0-1.1-.3c-.3-.2-.6-.4-.8-.8-.2-.3-.3-.8-.3-1.3s0-.9.3-1.2c.2-.4.4-.6.7-.8.3-.2.7-.3,1.1-.3s.9.1,1.3.4c.4.3.6.7.6,1.2h.6c0-.5-.2-.8-.4-1.2-.2-.3-.5-.5-.9-.7s-.8-.3-1.2-.3-1,.1-1.4.3c-.4.2-.7.6-1,1-.2.4-.4.9-.4,1.5s.1,1.1.4,1.5c.2.4.6.8,1,1,.4.2.9.3,1.4.3s.8,0,1.2-.2c.4-.2.7-.4.9-.7.2-.3.4-.6.5-1.1h-.6c0,.4-.3.8-.6,1Z"/>
  <polygon class="st0" points="139 51.6 142.5 51.6 142.5 51.1 139.6 51.1 139.6 49 142.1 49 142.1 48.5 139.6 48.5 139.6 46.6 142.5 46.6 142.5 46 139 46 139 51.6"/>
  <path class="st0" d="M146.7,50.7s0,0,0,0l-1.8-4.7-1,5.7h3.3l1.8-4.2v4.2h.7v-5.7l-2.8,4.7s0,0,0,0Z"/>
  <path class="st0" d="M152.7,46l-2.3,5.6h.7l.6-1.5h2.6l.6,1.5h.7l-2.3-5.6h-.5ZM151.9,49.6l1.1-2.7,1.1,2.7h-2.2Z"/>
  <polygon class="st0" points="160.2 46 159.4 46 156.9 48.8 156.9 46 156.3 46 156.3 51.6 156.9 51.6 156.9 49.7 157.6 48.9 159.8 51.6 160.5 51.6 158 48.4 160.2 46"/>
  <polygon class="st0" points="161.3 51.6 164.7 51.6 164.7 51.1 161.9 51.1 161.9 49 164.4 49 164.4 48.5 161.9 48.5 161.9 46.6 164.7 46.6 164.7 46 161.3 46 161.3 51.6"/>
  <path class="st0" d="M169.2,48.7c.2-.3.3-.6.3-1s0-.7-.2-.9c-.1-.2-.4-.4-.6-.6-.3-.1-.5-.2-.9-.2h-2.1v5.6h.6v-2.3h1.5s1.3,2.3,1.3,2.3h.7l-1.3-2.4c.3-.1.6-.3.8-.6ZM167.7,48.8h-1.4v-2.2h1.4c.3,0,.6,0,.8.3.2.2.3.5.3.8s-.1.6-.3.8c-.2.2-.5.3-.8.3Z"/>
  <path class="st0" d="M173.7,48.9c-.3-.1-.6-.2-1.1-.3-.3,0-.6-.2-.8-.2-.2,0-.3-.2-.4-.3-.1-.1-.2-.3-.2-.5s.1-.5.3-.7c.2-.2.5-.3.9-.3s.7,0,.9.3c.2.2.4.4.4.8h.6c0-.5-.2-.9-.6-1.2-.3-.3-.8-.4-1.3-.4s-.8,0-1,.2c-.3.1-.5.3-.6.6-.1.2-.2.5-.2.8s0,.6.2.8c.2.2.4.3.6.4.2,0,.6.2,1,.3.4,0,.7.2.9.2.2,0,.4.2.5.3.1.1.2.3.2.5,0,.3-.1.6-.4.8-.2.2-.6.3-1,.3s-.8,0-1-.3c-.3-.2-.4-.5-.5-.8h-.6c0,.5.2.9.6,1.2.4.3.9.4,1.5.4s1-.1,1.4-.4c.4-.3.6-.7.6-1.2s0-.6-.2-.8c-.1-.2-.4-.3-.6-.5Z"/>
  <path class="st0" d="M112.2,47.5c0,0,.2-.1.2-.3s0-.2,0-.4c0-.3,0-.5-.2-.6-.2-.1-.4-.2-.7-.2h-1.1v3.1h1.2c.3,0,.5,0,.7-.2.2-.1.3-.4.3-.6s0-.4-.1-.5-.2-.2-.3-.3ZM110.8,46.3h.8c.2,0,.3,0,.4.1.1,0,.2.2.2.4s0,.3-.1.4c0,0-.2.1-.4.1h-.9v-1.1ZM112.1,48.6c-.1,0-.3.1-.5.1h-.9v-1.1h.9c.2,0,.3,0,.4.1.1,0,.2.2.2.4s0,.3-.2.4Z"/>
  <polygon class="st0" points="113.9 48.6 113.2 47 112.9 47 113.7 49 113.2 50.1 113.6 50.1 114.9 47 114.5 47 113.9 48.6"/>
  <path class="st0" d="M100.2,17.8s0,0-.1-.1l-6.8-5.7s0,0-.1,0l-3.8-2.2c-.1,0-.3-.1-.4-.1l-4.8-.5c-.4,0-.9.2-1,.6l-1.3,3c-.1.2-.3.4-.6.5l-7.5,2c-.3,0-.5.3-.6.5l-2.8,5.2c0,.1-.1.2-.2.3l-8.3,6.3c-.2.2-.4.5-.4.8l-.4,6c0,.4.2.7.5.9l19.7,12.4c.1,0,.2.1.4.1l12.2,2.2c0,0,.1,0,.2,0s0,0,.1,0l9-1.3c.3,0,.5-.2.7-.4l3.5-4.6c.1-.2.2-.4.2-.6v-15.5c0-.2,0-.5-.2-.7l-7-8.8ZM106.6,27.3v15.5c0,0,0,.1,0,.2l-3.5,4.6c0,0-.1,0-.2,0l-9,1.3s0,0,0,0l-12.2-2.2s0,0,0,0l-19.7-12.4c0,0-.1-.1-.1-.2l.4-6c0,0,0-.1.1-.2l8.3-6.3c.2-.1.3-.3.5-.5l2.8-5.2c0,0,0-.1.2-.1l7.5-2c.5-.1.9-.5,1.1-.9l1.3-3c0,0,.1-.2.2-.2s0,0,0,0l4.8.5s0,0,.1,0l3.8,2.2s0,0,0,0l6.8,5.7s0,0,0,0l7,8.8h0c0,0,0,.1,0,.2Z"/>
</svg>